<?xml version="1.0" standalone="no"?>
<!DOCTYPE svg PUBLIC "-//W3C//DTD SVG 1.1//EN" "http://www.w3.org/Graphics/SVG/1.1/DTD/svg11.dtd" >
<svg xmlns="http://www.w3.org/2000/svg">
<metadata></metadata>
<defs>
<font id="kievitotextrabold" horiz-adv-x="1593" >
<font-face units-per-em="2048" ascent="1556" descent="-492" />
<missing-glyph horiz-adv-x="376" />
<glyph unicode="&#xfb01;" horiz-adv-x="1236" d="M33 774v230h145v86q0 190 124.5 299.5t338.5 109.5q97 0 178 -15t120 -31t85 -40l-104 -227q-101 59 -234 59q-197 0 -197 -180v-61h625v-1004h-311v774h-314v-774h-311v774h-145z" />
<glyph unicode="&#xfb02;" horiz-adv-x="1263" d="M33 774v230h145v88q0 193 127.5 300t376.5 107q128 0 249 -19t193 -44v-1436h-311v1227q-52 18 -151 18q-173 0 -173 -180v-61h201v-230h-201v-774h-311v774h-145z" />
<glyph unicode="&#xfb03;" horiz-adv-x="1849" d="M33 774v230h147v81q0 185 114.5 293.5t319.5 108.5q84 0 152 -13.5t102 -28.5t74 -38q125 92 315 92q97 0 178 -15t120 -31t85 -40l-104 -227q-101 59 -236 59q-194 0 -194 -180v-61h620v-1004h-311v774h-309v-774h-311v774h-303v-774h-312v774h-147zM492 1004h303v86 q0 52 12 98q-61 45 -150 45q-80 0 -122.5 -42t-42.5 -136v-51z" />
<glyph unicode="&#xfb04;" horiz-adv-x="1878" d="M33 774v230h147v81q0 185 114.5 293.5t319.5 108.5q122 0 194.5 -22t129.5 -60q129 94 360 94q128 0 249.5 -19t193.5 -44v-1436h-311v1227q-56 18 -152 18q-172 0 -172 -180v-61h205v-230h-205v-774h-311v774h-303v-774h-312v774h-147zM492 1004h303v88q0 52 12 98 q-58 43 -150 43q-80 0 -122.5 -42t-42.5 -136v-51z" />
<glyph horiz-adv-x="0" />
<glyph horiz-adv-x="0" />
<glyph horiz-adv-x="682" />
<glyph unicode="&#xd;" horiz-adv-x="376" />
<glyph unicode=" "  horiz-adv-x="376" />
<glyph unicode="&#x09;" horiz-adv-x="376" />
<glyph unicode="&#xa0;" horiz-adv-x="376" />
<glyph unicode="!" horiz-adv-x="641" d="M129 164q0 76 54 129t136 53q84 0 138.5 -53t54.5 -129t-55 -130t-138 -54q-82 0 -136 54t-54 130zM139 1364h363l-58 -885h-249z" />
<glyph unicode="&#x22;" horiz-adv-x="827" d="M70 1364h297l-33 -516h-205zM461 1364h297l-60 -516h-204z" />
<glyph unicode="#" horiz-adv-x="1099" d="M49 412l37 221h174l23 153h-174l34 222h172l39 241h209l-37 -241h150l37 241h211l-39 -241h162l-37 -222h-158l-23 -153h160l-37 -221h-155l-35 -244h-211l37 244h-152l-37 -244h-211l39 244h-178zM463 625h164l24 168h-164z" />
<glyph unicode="$" horiz-adv-x="880" d="M43 72l100 215q136 -84 263 -84q155 0 155 73q0 31 -37 51t-115.5 44.5t-125.5 48.5q-109 56 -163 121.5t-54 169.5q0 114 65 192t184 107v219h256v-207q148 -15 234 -72l-103 -211q-38 24 -100 43t-123 19q-137 0 -137 -74q0 -17 12.5 -31.5t37 -25.5t49.5 -20t63 -21.5 t63 -22.5q62 -25 106.5 -49.5t85 -60t61 -83.5t20.5 -108q0 -128 -69.5 -207.5t-199.5 -107.5v-242h-256v234q-167 18 -272 90z" />
<glyph unicode="%" horiz-adv-x="1861" d="M43 694q0 139 99 236.5t272 97.5q176 0 271 -91t95 -232q0 -68 -24 -128t-69 -107.5t-116.5 -75t-160.5 -27.5q-174 0 -270.5 93t-96.5 234zM309 705q0 -65 24.5 -107.5t80.5 -42.5q58 0 80 37t22 102q0 64 -25 105t-79 41q-103 0 -103 -135zM502 0l602 1004h258 l-602 -1004h-258zM1081 303q0 139 98.5 236.5t272.5 97.5q175 0 271 -92t96 -234q0 -140 -99 -238t-272 -98q-176 0 -271.5 93t-95.5 235zM1346 311q0 -63 25 -105t81 -42q58 0 79 37t21 102q0 64 -24 105t-78 41q-104 0 -104 -138z" />
<glyph unicode="&#x26;" horiz-adv-x="1388" d="M61 356q0 135 68.5 226.5t212.5 169.5q-67 82 -100 153t-33 148q0 153 117 244.5t303 91.5t291.5 -87t105.5 -223q0 -107 -69.5 -190t-213.5 -168l213 -242q58 113 78 226l262 -46q-39 -218 -166 -383l242 -276h-375l-77 88q-171 -113 -371 -113q-235 0 -361.5 105 t-126.5 276zM383 381q0 -77 53 -122.5t142 -45.5q106 0 186 57l-268 301q-113 -81 -113 -190zM512 1059q0 -81 94 -185q73 48 105 93t32 96q0 47 -30.5 79t-81.5 32q-53 0 -86 -32t-33 -83z" />
<glyph unicode="'" horiz-adv-x="448" d="M72 1364h305l-49 -516h-207z" />
<glyph unicode="(" horiz-adv-x="735" d="M76 580q0 126 24 247t60.5 215.5t86.5 180.5t97 145.5t96 106.5h295q-42 -47 -82 -103t-85.5 -141.5t-78.5 -178.5t-55 -215t-22 -249q0 -539 323 -926h-295q-364 391 -364 918z" />
<glyph unicode=")" horiz-adv-x="737" d="M0 -338q328 384 328 907q0 156 -31 301t-83 259t-103.5 196t-110.5 150h299q65 -66 122.5 -146t115.5 -192.5t92.5 -257.5t34.5 -301q0 -131 -25 -256.5t-62 -220.5t-88.5 -183.5t-96 -146.5t-93.5 -109h-299z" />
<glyph unicode="*" horiz-adv-x="1036" d="M86 975l82 221l238 -96l-15 264h254l-14 -264l237 96l82 -221l-262 -72l180 -203l-206 -143l-144 229l-145 -229l-205 143l180 203z" />
<glyph unicode="+" horiz-adv-x="1138" d="M84 420v235h354v355h264v-355h353v-235h-353v-365h-264v365h-354z" />
<glyph unicode="," horiz-adv-x="622" d="M113 193q0 73 52.5 121t129.5 48q91 0 153 -66.5t62 -178.5q0 -106 -44 -217t-110 -203h-196q84 129 84 221q0 35 -13.5 62.5t-32.5 47t-38.5 40t-33 52.5t-13.5 73z" />
<glyph unicode="-" horiz-adv-x="688" d="M102 449v249h486v-249h-486z" />
<glyph unicode="." horiz-adv-x="622" d="M113 172q0 80 57.5 135t140.5 55t141 -55.5t58 -134.5q0 -81 -57.5 -136.5t-141.5 -55.5q-83 0 -140.5 55t-57.5 137z" />
<glyph unicode="/" horiz-adv-x="952" d="M31 -244l610 1690h301l-610 -1690h-301z" />
<glyph unicode="0" horiz-adv-x="1208" d="M59 498q0 79 20.5 153.5t64.5 143.5t107 120.5t155.5 82t203.5 30.5t202.5 -29t153.5 -79t105 -117t62.5 -141t19.5 -154q0 -79 -20 -154t-63.5 -144t-106 -121t-154.5 -83t-203 -31t-203 30t-154.5 80.5t-106 118t-63.5 141.5t-20 153zM393 508q0 -138 56.5 -212.5 t160.5 -74.5q103 0 156 70.5t53 206.5q0 137 -54.5 210.5t-158.5 73.5q-105 0 -159 -69t-54 -205z" />
<glyph unicode="1" horiz-adv-x="784" d="M33 909l375 95h237v-1004h-309v735l-240 -69z" />
<glyph unicode="2" horiz-adv-x="1060" d="M39 0v143q48 32 67 45t69 47.5t75.5 53.5t71.5 53t72 57.5t62 55.5t56.5 57t41 53t29.5 53t9 48q0 58 -39.5 88t-112.5 30q-120 0 -235 -102l-148 195q75 67 188.5 110t246.5 43q204 0 319 -74t115 -225q0 -61 -24.5 -120.5t-60.5 -106.5t-94.5 -98.5t-107.5 -86.5 t-119 -81q72 8 137 8h349v-246h-967z" />
<glyph unicode="3" horiz-adv-x="956" d="M35 893q168 135 424 135q192 0 297.5 -85.5t105.5 -225.5q0 -64 -24.5 -119.5t-65.5 -94.5t-86.5 -65t-93.5 -39v-4q59 -5 114 -29.5t101 -65t74 -102.5t28 -137q0 -205 -168.5 -325.5t-449.5 -120.5q-158 0 -228 16l48 248q57 -20 168 -20q135 0 215.5 52t80.5 150 q0 96 -86.5 137.5t-244.5 41.5v223q111 3 204 60t93 141q0 116 -154 116q-114 0 -209 -84z" />
<glyph unicode="4" horiz-adv-x="1263" d="M43 0v195l668 809h278v-768h209v-236h-209v-362h-311v362h-635zM375 236h303v378h-4z" />
<glyph unicode="5" horiz-adv-x="954" d="M53 -360l58 243q84 -22 159 -22q128 0 208.5 58t80.5 169q0 115 -79.5 167t-215.5 52q-104 0 -153 -14l45 711h706v-238h-426l-14 -219q218 -6 344.5 -124.5t126.5 -318.5q0 -227 -167.5 -358t-455.5 -131q-126 0 -217 25z" />
<glyph unicode="6" horiz-adv-x="1140" d="M63 582q0 178 62 327.5t174.5 255.5t277.5 165t365 59l66 -248q-127 0 -251 -31.5t-198 -91.5q-122 -96 -151 -248q99 72 251 72q185 0 304.5 -110t119.5 -306q0 -137 -67.5 -240.5t-181 -157t-254.5 -53.5q-136 0 -238 48.5t-161.5 134t-88.5 192t-29 232.5zM389 528 q-1 -87 18.5 -157t66 -116t114.5 -46q76 0 121 55t45 142q0 202 -174 202q-114 0 -191 -63v-17z" />
<glyph unicode="7" horiz-adv-x="1003" d="M43 752v252h879v-160l-590 -1258l-260 127l485 1039h-514z" />
<glyph unicode="8" horiz-adv-x="1114" d="M63 344q0 213 256 352q-110 62 -162.5 139.5t-52.5 182.5q0 163 130 267t323 104q212 0 335.5 -92.5t123.5 -260.5q0 -178 -234 -309q134 -69 200.5 -156.5t66.5 -214.5q0 -180 -135 -280.5t-355 -100.5q-233 0 -364.5 99.5t-131.5 269.5zM379 354q0 -69 46.5 -110 t129.5 -41t127.5 42.5t44.5 108.5q0 58 -45 108t-150 107q-79 -48 -116 -99.5t-37 -115.5zM420 1034q0 -54 35 -99t112 -91q135 88 135 182q0 62 -36 99.5t-103 37.5t-105 -36.5t-38 -92.5z" />
<glyph unicode="9" horiz-adv-x="1146" d="M57 580q0 136 70 239.5t185 156t257 52.5q110 0 197.5 -32.5t145.5 -88.5t97 -134t55.5 -165t16.5 -186q0 -181 -59 -328.5t-171.5 -252t-283 -161.5t-385.5 -57l-67 246q125 0 257 33.5t212 91.5q130 95 159 246q-106 -74 -258 -74q-187 0 -307.5 109t-120.5 305z M389 594q0 -97 47 -147t129 -50q115 0 191 64v14q2 87 -16 157t-64 116.5t-115 46.5q-78 0 -125 -53.5t-47 -147.5z" />
<glyph unicode=":" horiz-adv-x="626" d="M113 172q0 81 58 135.5t142 54.5t141.5 -54.5t57.5 -135.5t-57.5 -136.5t-141.5 -55.5t-142 55.5t-58 136.5zM113 825q0 80 58.5 135.5t141.5 55.5t141 -55.5t58 -135.5q0 -83 -57.5 -138.5t-141.5 -55.5t-142 55.5t-58 138.5z" />
<glyph unicode=";" horiz-adv-x="626" d="M113 825q0 80 58.5 135.5t141.5 55.5t141 -55.5t58 -135.5q0 -83 -57.5 -138.5t-141.5 -55.5t-142 55.5t-58 138.5zM119 193q0 73 52.5 121t129.5 48q91 0 153 -66.5t62 -178.5q0 -107 -44 -217.5t-110 -202.5h-196q84 129 84 221q0 35 -13.5 62.5t-32.5 47t-38.5 40 t-33 52.5t-13.5 73z" />
<glyph unicode="&#x3c;" horiz-adv-x="821" d="M53 508l529 483l163 -168l-337 -307l344 -301l-166 -178z" />
<glyph unicode="=" horiz-adv-x="991" d="M82 223v234h827v-234h-827zM82 621v233h827v-233h-827z" />
<glyph unicode="&#x3e;" horiz-adv-x="821" d="M70 815l166 176l532 -471l-528 -483l-164 168l338 307z" />
<glyph unicode="?" horiz-adv-x="849" d="M14 1313q144 76 348 76q214 0 324.5 -99t110.5 -256q0 -106 -46.5 -178t-125.5 -127q-18 -14 -49.5 -35t-46.5 -32.5t-33 -29.5t-25.5 -38.5t-7.5 -46.5v-72h-266v105q0 91 33.5 143.5t105.5 99.5q65 44 94 84t29 99q0 129 -158 129q-17 0 -33.5 -1.5t-32 -5t-26.5 -6.5 t-26.5 -9.5t-21.5 -9t-21.5 -10t-18.5 -8.5zM141 164q0 76 54 129t137 53t136.5 -53t53.5 -129q0 -77 -53.5 -130.5t-136.5 -53.5t-137 53.5t-54 130.5z" />
<glyph unicode="@" horiz-adv-x="1693" d="M98 494q0 151 59 296.5t161 259t252 183.5t319 70q178 0 321 -51.5t233 -141t137.5 -206.5t47.5 -251q0 -224 -119.5 -357.5t-316.5 -133.5q-201 0 -221 160h-6q-41 -68 -110.5 -111t-156.5 -43q-98 0 -156.5 69.5t-58.5 176.5q0 152 53 276t154.5 197.5t233.5 73.5 q164 0 323 -58l-61 -362q-15 -92 -15 -113q0 -34 17 -54t47 -20q79 0 134.5 76.5t55.5 208.5q0 232 -141 354.5t-397 122.5q-113 0 -216 -46t-179 -126t-121 -195.5t-45 -248.5q0 -250 133.5 -383t396.5 -133q161 0 295 59l72 -180q-66 -27 -174 -48.5t-215 -21.5 q-168 0 -306.5 52t-232.5 144.5t-145.5 222t-51.5 282.5zM733 461q0 -90 64 -90q131 0 196 334l15 61q-42 14 -93 14q-84 0 -133 -93.5t-49 -225.5z" />
<glyph unicode="A" horiz-adv-x="1427" d="M27 0l520 1364h317l537 -1364h-361l-79 229h-521l-80 -229h-333zM528 492h340l-100 280q-14 40 -27 84t-20 69.5t-14 54.5t-7 30h-4q-2 -7 -11.5 -44.5t-25 -90.5t-32.5 -103z" />
<glyph unicode="B" horiz-adv-x="1251" d="M160 0v1364h487q100 0 182 -17t151 -55t107.5 -106t38.5 -162q0 -254 -241 -315v-4q129 -20 213 -104t84 -224q0 -101 -40 -175t-114.5 -117.5t-170 -64t-216.5 -20.5h-481zM485 250h140q110 0 166.5 38.5t56.5 123.5q0 86 -51.5 127t-159.5 41h-152v-330zM485 811h117 q104 0 152.5 38t48.5 118q0 147 -193 147h-125v-303z" />
<glyph unicode="C" horiz-adv-x="1267" d="M82 684q0 112 28.5 215.5t87.5 193t143 155.5t201.5 103.5t256.5 37.5q250 0 418 -111l-146 -240q-128 78 -278 78q-170 0 -265.5 -119t-95.5 -305q0 -194 95 -318t272 -124q69 0 129 17t94 35.5t76 49.5l135 -231q-63 -55 -183 -100.5t-257 -45.5q-139 0 -256.5 38 t-200.5 104t-141 156t-85.5 194t-27.5 217z" />
<glyph unicode="D" horiz-adv-x="1464" d="M160 0v1364h444q197 0 347 -48t244 -137t141.5 -209.5t47.5 -269.5q0 -119 -30 -223.5t-93 -192.5t-155 -151t-223.5 -98t-290.5 -35h-432zM492 262h126q418 0 418 430q0 212 -104 311t-324 99h-116v-840z" />
<glyph unicode="E" horiz-adv-x="1103" d="M160 0v1364h815v-270h-488v-265h431v-254h-431v-305h502v-270h-829z" />
<glyph unicode="F" horiz-adv-x="1056" d="M160 0v1364h807v-270h-475v-301h419v-252h-419v-541h-332z" />
<glyph unicode="G" horiz-adv-x="1456" d="M82 684q0 140 52 267t146.5 224.5t240.5 155.5t323 58q285 0 454 -121l-143 -246q-138 94 -317 94q-197 0 -301.5 -114.5t-104.5 -309.5q0 -97 22.5 -177t67.5 -142t119.5 -96.5t171.5 -34.5q136 0 209 43v235h-238v254h553v-672q-214 -127 -522 -127q-175 0 -316.5 58.5 t-231 157.5t-137.5 225.5t-48 267.5z" />
<glyph unicode="H" horiz-adv-x="1540" d="M160 0v1364h332v-522h559v522h327v-1364h-327v571h-559v-571h-332z" />
<glyph unicode="I" horiz-adv-x="692" d="M172 0v1364h334v-1364h-334z" />
<glyph unicode="J" horiz-adv-x="708" d="M-96 -389l51 266q45 -20 100 -20q88 0 124 43t36 147v1317h334v-1360q0 -209 -112 -320.5t-306 -111.5q-131 0 -227 39z" />
<glyph unicode="K" horiz-adv-x="1331" d="M160 0v1364h332v-571l434 571h362l-487 -629l506 -735h-387l-428 627v-627h-332z" />
<glyph unicode="L" horiz-adv-x="1081" d="M166 0v1364h334v-1100h497v-264h-831z" />
<glyph unicode="M" horiz-adv-x="1824" d="M76 0l188 1364h322l256 -813q17 -55 39 -139t24 -90h4q2 7 25.5 91t40.5 138l266 813h322l186 -1364h-338l-76 643q-22 183 -22 201h-4q-29 -112 -56 -197l-200 -647h-326l-201 647q-15 50 -33.5 122t-19.5 75h-4q0 -59 -16 -203l-80 -641h-297z" />
<glyph unicode="N" horiz-adv-x="1540" d="M160 0v1364h334l442 -635q30 -44 59 -89t45 -73t29.5 -51.5t15.5 -26.5h5q-9 63 -9 224v651h299v-1364h-301l-485 688q-37 52 -68 100t-49 78t-22 35h-4q8 -56 8 -190v-711h-299z" />
<glyph unicode="O" d="M82 680q0 112 29 215.5t88.5 193.5t143.5 156.5t201 105t253 38.5q138 0 254.5 -37.5t200 -103.5t142 -154.5t87 -190.5t28.5 -213q0 -112 -27.5 -216t-85.5 -195t-140 -158.5t-198 -106.5t-253 -39q-170 0 -309.5 58.5t-228.5 157t-137 224.5t-48 265zM432 690 q0 -92 22 -172t65 -143t114.5 -99t163.5 -36q94 0 166 35t114 97t63 139.5t21 168.5q0 92 -20 170t-61.5 140.5t-111.5 98t-163 35.5q-95 0 -167.5 -34.5t-117 -94.5t-66.5 -137t-22 -168z" />
<glyph unicode="P" horiz-adv-x="1241" d="M158 0v1364h481q116 0 212 -27t169 -80t113.5 -138.5t40.5 -196.5q0 -224 -152.5 -341.5t-417.5 -117.5h-117v-463h-329zM487 711h119q123 0 180.5 50.5t57.5 156.5q0 100 -56 149t-174 49h-127v-405z" />
<glyph unicode="Q" d="M82 680q0 112 29 215.5t88.5 193.5t143.5 156.5t201 105t253 38.5q138 0 254.5 -37.5t200 -103.5t142 -154.5t87 -190.5t28.5 -213q0 -118 -31.5 -227.5t-92 -202t-157 -161t-218.5 -99.5q52 -70 105.5 -97.5t133.5 -27.5q95 0 164 55l105 -213q-40 -32 -114.5 -59 t-168.5 -27q-175 0 -315.5 79.5t-294.5 287.5q-170 34 -295 137t-186.5 243.5t-61.5 301.5zM432 690q0 -92 22 -172t65 -143t114.5 -99t163.5 -36q94 0 166 35t114 97t63 139.5t21 168.5q0 92 -20 170t-61.5 140.5t-111.5 98t-163 35.5q-95 0 -167.5 -34.5t-117 -94.5 t-66.5 -137t-22 -168z" />
<glyph unicode="R" horiz-adv-x="1304" d="M160 0v1364h483q250 0 385 -103t135 -298q0 -155 -84.5 -247.5t-212.5 -123.5v-4q73 -51 166 -203l244 -385h-361l-241 389q-64 99 -93.5 124.5t-72.5 25.5h-16v-539h-332zM492 768h143q101 0 152 45t51 129q0 87 -52 130.5t-163 43.5h-131v-348z" />
<glyph unicode="S" horiz-adv-x="1069" d="M55 109l135 229q1 -1 11.5 -7.5t16 -10.5t19.5 -12t24.5 -13.5t27.5 -13t31.5 -13t34 -11t38 -9t40.5 -6t44 -2.5q94 0 145.5 37.5t51.5 97.5q0 26 -12 47t-30 36t-49 31.5t-60 28.5t-72.5 31.5t-77.5 36.5q-140 68 -212.5 162.5t-72.5 250.5q0 175 129.5 282.5 t325.5 107.5q252 0 411 -117l-129 -230q-49 30 -119.5 56t-140.5 26q-79 0 -121.5 -31t-42.5 -92q0 -23 10 -43t22 -33.5t40.5 -29.5t48.5 -25t63 -27.5t68 -29.5q63 -28 105.5 -51t90 -60t76 -77.5t47.5 -100t19 -131.5q0 -194 -134 -306t-370 -112q-149 0 -259 41.5 t-173 92.5z" />
<glyph unicode="T" horiz-adv-x="1126" d="M27 1094v270h1075v-270h-373v-1094h-332v1094h-370z" />
<glyph unicode="U" horiz-adv-x="1480" d="M154 535v829h331v-805q0 -165 63 -240t212 -75q262 0 262 301v819h303v-797q0 -290 -144.5 -441t-426.5 -151q-300 0 -450 141t-150 419z" />
<glyph unicode="V" horiz-adv-x="1392" d="M23 1364h358l264 -776q15 -46 30.5 -98t25.5 -87.5t12 -40.5h4q18 80 65 226l256 776h332l-508 -1364h-313z" />
<glyph unicode="W" horiz-adv-x="1896" d="M31 1364h352l154 -649q12 -50 24 -113t18.5 -101t6.5 -40h4q0 2 8 43t21.5 107t25.5 116l162 637h323l158 -635q12 -52 25 -117.5t20.5 -106.5t7.5 -44h7q0 4 6 42.5t18 102t25 113.5l157 645h314l-371 -1364h-305l-176 702q-13 50 -26 113t-20 100t-7 39h-5q0 -2 -8 -39 t-22.5 -99.5t-28.5 -113.5l-197 -702h-305z" />
<glyph unicode="X" horiz-adv-x="1294" d="M37 0l430 698l-414 666h377l234 -393l219 393h331l-391 -659l437 -705h-373l-262 438l-256 -438h-332z" />
<glyph unicode="Y" horiz-adv-x="1253" d="M18 1364h367l264 -543h2l262 543h322l-434 -850v-514h-332v514z" />
<glyph unicode="Z" horiz-adv-x="1175" d="M94 0v213l586 883h-563v268h964v-209l-589 -887h606v-268h-1004z" />
<glyph unicode="[" horiz-adv-x="722" d="M125 -330v1805h543v-230h-246v-1345h246v-230h-543z" />
<glyph unicode="\" horiz-adv-x="952" d="M0 1475h301l651 -1805h-301z" />
<glyph unicode="]" horiz-adv-x="722" d="M53 -100h248v1345h-248v230h545v-1805h-545v230z" />
<glyph unicode="^" horiz-adv-x="1196" d="M80 590l409 774h216l409 -774h-287l-229 452l-229 -452h-289z" />
<glyph unicode="_" horiz-adv-x="911" d="M-2 -156h915v-237h-915v237z" />
<glyph unicode="`" horiz-adv-x="1024" d="M244 1391h393l164 -283h-266z" />
<glyph unicode="a" horiz-adv-x="1048" d="M61 262q0 75 29.5 136t80 102t119.5 68.5t145 40t159 12.5h33v47q0 62 -33.5 89t-118.5 27q-139 0 -252 -90l-131 187q68 61 175 104t247 43q221 0 322.5 -90t101.5 -293v-328q0 -176 29 -317h-305q-15 48 -19 104q-43 -54 -113.5 -91.5t-160.5 -37.5q-134 0 -221 76.5 t-87 210.5zM356 289q0 -45 31.5 -69.5t81.5 -24.5q91 0 158 71v168h-33q-111 0 -174.5 -35.5t-63.5 -109.5z" />
<glyph unicode="b" horiz-adv-x="1153" d="M119 55v1420h311v-551q104 104 244 104q192 0 308 -131t116 -387q0 -130 -41.5 -232.5t-115 -168t-172 -100t-214.5 -34.5q-261 0 -436 80zM430 236q48 -19 125 -19q101 0 157 72t56 221q0 274 -186 274q-48 0 -88 -20.5t-64 -48.5v-479z" />
<glyph unicode="c" horiz-adv-x="950" d="M55 500q0 247 151 387.5t396 140.5q192 0 307 -76l-94 -211q-86 54 -201 54q-109 0 -169 -76.5t-60 -208.5q0 -137 60 -217t176 -80q51 0 99.5 12t62 18.5t44.5 22.5l91 -205q-26 -16 -46.5 -26.5t-62 -26.5t-96 -24.5t-119.5 -8.5q-248 0 -393.5 142t-145.5 383z" />
<glyph unicode="d" horiz-adv-x="1161" d="M57 498q0 239 126.5 384.5t324.5 145.5q138 0 225 -67v514h311v-1164q0 -175 31 -311h-305q-18 44 -22 106q-113 -133 -281 -133q-191 0 -300.5 137.5t-109.5 387.5zM387 496q0 -277 180 -277q96 0 166 88v420q-62 59 -153 59q-93 0 -143 -74t-50 -216z" />
<glyph unicode="e" horiz-adv-x="1081" d="M55 506q0 158 68.5 278t184 182t257.5 62q243 0 357 -159q93 -129 93 -347q0 -50 -5 -104h-619q11 -100 70 -157.5t166 -57.5q62 0 118 12.5t76.5 21.5t61.5 29l96 -194q-39 -22 -62.5 -33t-72.5 -29t-111 -26.5t-137 -8.5q-255 0 -398 142.5t-143 388.5zM383 623h330 q-2 84 -38.5 135t-113.5 51q-150 0 -178 -186z" />
<glyph unicode="f" horiz-adv-x="780" d="M33 774v230h145v88q0 185 106.5 296t297.5 111q177 0 266 -53l-70 -229q-63 28 -141 28q-77 0 -112.5 -44.5t-35.5 -133.5v-63h234v-230h-234v-774h-311v774h-145z" />
<glyph unicode="g" horiz-adv-x="1120" d="M47 -227q0 150 168 241q-88 56 -88 154q0 129 115 199q-85 46 -130.5 122t-45.5 175q0 165 121 264.5t335 99.5q106 0 189 -24h374v-199h-133q33 -71 33 -141q0 -166 -115.5 -264.5t-328.5 -98.5q-56 0 -121 10q-29 -25 -29 -51q0 -38 45 -51t176 -19q173 -8 247 -29 q171 -46 203 -200q7 -37 7 -80q0 -164 -154.5 -267t-414.5 -103q-221 0 -337 65.5t-116 196.5zM344 -164q0 -125 176 -125q113 0 176.5 37.5t63.5 93.5q0 24 -7.5 40t-23 25.5t-38.5 14.5t-52.5 8t-68.5 6q-30 2 -46 3q-67 3 -121 12q-59 -47 -59 -115zM365 664 q0 -81 41.5 -123.5t117.5 -42.5t119 42.5t43 123.5t-43 124t-119 43t-117.5 -43t-41.5 -124z" />
<glyph unicode="h" horiz-adv-x="1157" d="M119 0v1475h311v-586q134 139 309 139q158 0 230.5 -89.5t72.5 -240.5v-698h-311v635q0 70 -28 102.5t-93 32.5q-41 0 -82.5 -23t-62 -44t-35.5 -41v-662h-311z" />
<glyph unicode="i" horiz-adv-x="593" d="M113 1292q0 74 52 126t132 52t132 -52t52 -126t-52 -126t-132 -52t-132 52t-52 126zM139 0v1004h316v-1004h-316z" />
<glyph unicode="j" horiz-adv-x="587" d="M-115 -453l54 240q49 -14 81 -14q67 0 92 44.5t25 162.5v1024h316v-1055q0 -428 -365 -428q-122 0 -203 26zM109 1292q0 74 52 126t132 52t133 -52.5t53 -125.5t-53 -125.5t-133 -52.5t-132 52t-52 126z" />
<glyph unicode="k" horiz-adv-x="1091" d="M119 0v1475h311v-859l301 388h338l-358 -451l362 -553h-358l-285 457v-457h-311z" />
<glyph unicode="l" horiz-adv-x="585" d="M137 0v1475h312v-1475h-312z" />
<glyph unicode="m" horiz-adv-x="1703" d="M121 0v1004h305v-121q25 28 48 49t60 45.5t85.5 37.5t105.5 13q195 0 256 -156q69 77 144.5 116.5t177.5 39.5q103 0 168.5 -44.5t91.5 -115.5t26 -170v-698h-311v635q0 70 -23.5 102.5t-80.5 32.5q-82 0 -164 -100v-670h-312v635q0 69 -25 102t-77 33q-82 0 -159 -98 q-4 -5 -5 -6v-666h-311z" />
<glyph unicode="n" horiz-adv-x="1159" d="M121 0v1004h305v-123q128 147 315 147q157 0 230 -90t73 -240v-698h-311v635q0 70 -28 102.5t-93 32.5q-54 0 -101 -33t-79 -75v-662h-311z" />
<glyph unicode="o" horiz-adv-x="1142" d="M55 498q0 81 19 156.5t60.5 144t100.5 119t145 80.5t189 30q127 0 228 -43.5t162.5 -117.5t93.5 -166t32 -193q0 -80 -19.5 -155.5t-61 -144.5t-100.5 -120.5t-145.5 -82t-189.5 -30.5q-102 0 -188 29t-145.5 79t-100.5 117t-60.5 142t-19.5 156zM385 508 q0 -301 190 -301q99 0 140 74t41 217q0 303 -191 303q-99 0 -139.5 -75.5t-40.5 -217.5z" />
<glyph unicode="p" horiz-adv-x="1165" d="M121 -449v1453h305v-105q108 129 274 129q193 0 300.5 -137t107.5 -389q0 -236 -126.5 -381.5t-324.5 -145.5q-135 0 -225 66v-490h-311zM432 272q67 -59 154 -59q92 0 142 75t50 216q0 134 -45.5 206t-132.5 72q-41 0 -79 -18t-56.5 -35.5t-32.5 -36.5v-420z" />
<glyph unicode="q" horiz-adv-x="1155" d="M61 494q0 172 73 294.5t194 181t276 58.5q259 0 436 -74v-1400h-311v526q-101 -105 -244 -105q-192 0 -308 131.5t-116 387.5zM391 492q0 -277 187 -277q88 0 151 70v483q-54 18 -121 18q-103 0 -160 -72.5t-57 -221.5z" />
<glyph unicode="r" horiz-adv-x="829" d="M121 0v1004h311v-132q39 66 102 111t148 45q90 0 145 -31l-73 -266q-45 25 -111 25q-40 0 -76 -14t-62 -37t-43 -42.5t-30 -41.5v-621h-311z" />
<glyph unicode="s" horiz-adv-x="868" d="M43 70l100 215q125 -82 248 -82q152 0 152 73q0 26 -31.5 44.5t-107 46t-125.5 53.5q-106 52 -156.5 119t-50.5 172q0 146 107 231.5t284 85.5q192 0 330 -76l-103 -211q-107 60 -213 60q-129 0 -129 -74q0 -17 10 -30t32.5 -24t43.5 -19t59.5 -21t65.5 -23 q64 -26 108 -51.5t81 -61t55 -83.5t18 -109q0 -162 -108 -246t-303 -84q-226 0 -367 95z" />
<glyph unicode="t" horiz-adv-x="817" d="M37 774v230h156v288h311v-288h229v-230h-229v-405q0 -75 21 -107.5t73 -32.5q65 0 131 33l68 -229q-104 -58 -265 -58q-184 0 -261.5 84.5t-77.5 243.5v471h-156z" />
<glyph unicode="u" horiz-adv-x="1159" d="M115 303v701h311v-635q0 -70 28 -103t93 -33q94 0 180 107v664h311v-691q0 -176 29 -313h-307q-17 58 -21 131q-50 -65 -130.5 -110.5t-190.5 -45.5q-158 0 -230.5 89t-72.5 239z" />
<glyph unicode="v" horiz-adv-x="1069" d="M18 1004h334l187 -621h4l190 621h318l-373 -1004h-291z" />
<glyph unicode="w" horiz-adv-x="1550" d="M18 1004h334l133 -603h4l152 603h285l151 -607h4l140 607h309l-281 -1004h-280l-195 637h-4l-190 -637h-281z" />
<glyph unicode="x" horiz-adv-x="1079" d="M29 0l342 516l-332 488h350q160 -242 162 -248l141 248h318l-310 -474l353 -530h-353l-182 291l-168 -291h-321z" />
<glyph unicode="y" horiz-adv-x="1089" d="M0 -461l45 246q42 -12 105 -12q97 0 143 38.5t76 118.5l34 97l-374 977h329l207 -619h6l183 619h317l-409 -1102q-37 -101 -76.5 -168t-96 -118t-133.5 -74t-182 -23q-97 0 -174 20z" />
<glyph unicode="z" horiz-adv-x="960" d="M78 0v166l414 604h-396v234h774v-177l-409 -594h411v-233h-794z" />
<glyph unicode="{" horiz-adv-x="862" d="M51 465v237q123 1 179.5 50.5t56.5 150.5v309q0 129 74.5 196t181.5 67h264v-230h-123q-58 0 -79 -33t-21 -100v-278q0 -190 -181 -244v-4q86 -28 133.5 -89t47.5 -169v-297q0 -74 18.5 -102.5t79.5 -28.5h125v-230h-268q-101 0 -176.5 70t-75.5 194v332 q0 97 -56.5 147.5t-179.5 51.5z" />
<glyph unicode="|" horiz-adv-x="587" d="M156 -512v2048h276v-2048h-276z" />
<glyph unicode="}" horiz-adv-x="862" d="M53 -100h125q58 0 79.5 33t21.5 100v301q0 104 47.5 161.5t132.5 82.5v4q-180 59 -180 258v274q0 74 -19 102.5t-80 28.5h-127v230h271q100 0 175.5 -70.5t75.5 -194.5v-307q0 -98 56.5 -149t179.5 -52v-237q-123 -1 -179.5 -50t-56.5 -149v-334q0 -128 -74.5 -195 t-181.5 -67h-266v230z" />
<glyph unicode="~" horiz-adv-x="1196" d="M66 539q144 155 335 155q62 0 117 -17.5t89 -38.5t86.5 -38.5t111.5 -17.5q100 0 184 84l141 -183q-57 -61 -142.5 -108t-194.5 -47q-66 0 -123 17.5t-91.5 38.5t-85 38.5t-104.5 17.5q-45 0 -85 -16.5t-57 -30.5t-40 -37z" />
<glyph unicode="&#xa1;" horiz-adv-x="624" d="M129 842q0 77 55 131.5t138 54.5q82 0 136 -54.5t54 -131.5q0 -75 -54 -129t-136 -54q-83 0 -138 54t-55 129zM139 -358l58 886h247l58 -886h-363z" />
<glyph unicode="&#xa2;" horiz-adv-x="950" d="M55 500q0 195 97 325.5t262 175.5v228h254v-203q146 -12 241 -74l-94 -211q-86 54 -201 54q-109 0 -169 -76.5t-60 -208.5q0 -137 60 -217t176 -80q51 0 99.5 12t62 18.5t44.5 22.5l91 -205q-113 -69 -250 -81v-232h-254v250q-169 44 -264 177t-95 325z" />
<glyph unicode="&#xa3;" horiz-adv-x="1079" d="M127 532v224h170q-25 142 -25 225q0 187 124 297.5t343 110.5q186 0 310 -78l-121 -215q-83 45 -170 45q-160 0 -160 -187q0 -81 23 -198h294v-224h-264v-6q0 -92 -36 -165.5t-85 -114.5h461v-246h-854v197q96 48 144.5 133.5t48.5 187.5v14h-203z" />
<glyph unicode="&#xa4;" horiz-adv-x="1325" d="M135 168l162 205q-68 103 -68 237t76 246l-164 207l228 174l159 -217q74 24 146 24q62 0 129 -18l158 213l229 -176l-156 -195q84 -106 84 -258q0 -144 -78 -254l146 -186l-228 -174l-145 199q-75 -21 -139 -21q-79 0 -158 27l-154 -207zM520 610q0 -71 41.5 -117.5 t112.5 -46.5t111 46t40 118q0 73 -40.5 118.5t-110.5 45.5q-68 0 -111 -46.5t-43 -117.5z" />
<glyph unicode="&#xa5;" horiz-adv-x="1234" d="M10 1364h367l264 -549h2l262 549h322l-340 -664h239v-211h-335v-110h335v-211h-335v-168h-330v168h-334v211h334v110h-334v211h235z" />
<glyph unicode="&#xa6;" horiz-adv-x="534" d="M125 262h278v-774h-278v774zM125 782v754h278v-754h-278z" />
<glyph unicode="&#xa7;" horiz-adv-x="950" d="M61 659q0 91 45.5 163.5t116.5 117.5q-71 107 -71 213q0 156 111 251t276 95q186 0 303 -80l-111 -198q-52 33 -95 42q-26 5 -56 5q-53 0 -83 -29t-30 -76q0 -40 31.5 -84t78 -82.5t101.5 -89.5t101.5 -103t78 -124.5t31.5 -151.5q0 -158 -156 -276q74 -98 74 -201 q0 -91 -34 -161.5t-93 -113.5t-134 -65t-161 -22q-191 0 -291 69l88 224q75 -52 162 -52q69 0 108.5 32t39.5 89q0 31 -24 65t-62 67t-84 69t-91.5 79.5t-83.5 90.5t-62 108.5t-24 128.5zM354 684q0 -28 17 -61t52.5 -71t60.5 -61.5t71 -64.5q37 37 37 90q0 12 -4 25.5 t-12.5 28.5t-17.5 28t-24.5 30t-27 29.5t-31 30.5t-31 28.5t-33 30t-30.5 27.5q-27 -27 -27 -90z" />
<glyph unicode="&#xa8;" horiz-adv-x="1024" d="M125 1272q0 64 46.5 111t117.5 47t118.5 -47t47.5 -111q0 -67 -47.5 -113.5t-118.5 -46.5t-117.5 46.5t-46.5 113.5zM569 1272q0 64 47.5 111t118.5 47t117.5 -47t46.5 -111q0 -67 -46.5 -113.5t-117.5 -46.5t-118.5 46.5t-47.5 113.5z" />
<glyph unicode="&#xa9;" horiz-adv-x="1693" d="M84 735q0 155 60.5 296.5t162.5 244t243 163t296 60.5t296.5 -60.5t244 -163t163 -244t60.5 -296.5t-60.5 -296.5t-163 -244t-244 -163t-296.5 -60.5t-296 60.5t-243 163t-162.5 244t-60.5 296.5zM268 735q0 -265 162 -427.5t416 -162.5q253 0 415 162t162 428 q0 264 -162 427t-415 163t-415.5 -163t-162.5 -427zM412 735q0 194 130.5 323.5t321.5 129.5q179 0 307 -113l-120 -172q-84 68 -179 68q-92 0 -150 -65t-58 -167q0 -108 60 -177.5t153 -69.5q101 0 196 90l115 -160q-139 -139 -330 -139q-192 0 -319 127.5t-127 324.5z" />
<glyph unicode="&#xaa;" horiz-adv-x="782" d="M41 844q0 119 100 186q103 68 305 68v28q0 41 -22 60.5t-80 19.5q-89 0 -182 -65l-101 143q47 41 126 73t186 32q165 0 239 -64t74 -211v-231q0 -128 29 -228h-240q-9 22 -14 68q-82 -86 -189 -86q-102 0 -166.5 54.5t-64.5 152.5zM266 866q0 -30 20 -46.5t56 -16.5 q56 0 104 43v112q-119 0 -157 -36q-23 -23 -23 -56z" />
<glyph unicode="&#xab;" horiz-adv-x="1144" d="M57 502l238 397h317l-235 -397l235 -396h-317zM541 502l237 397h318l-236 -397l236 -396h-318z" />
<glyph unicode="&#xac;" horiz-adv-x="1300" d="M82 424v238h1126v-603h-245v365h-881z" />
<glyph unicode="&#xad;" horiz-adv-x="688" d="M102 449v249h486v-249h-486z" />
<glyph unicode="&#xae;" horiz-adv-x="1693" d="M84 735q0 155 60.5 296.5t162.5 244t243 163t296 60.5t296.5 -60.5t244 -163t163 -244t60.5 -296.5t-60.5 -296.5t-163 -244t-244 -163t-296.5 -60.5t-296 60.5t-243 163t-162.5 244t-60.5 296.5zM268 735q0 -265 162 -427.5t416 -162.5q253 0 415 162t162 428 q0 264 -162 427t-415 163t-415.5 -163t-162.5 -427zM547 334v829h305q151 0 231 -63.5t80 -181.5q0 -95 -49 -150t-129 -76q45 -36 98 -127l136 -231h-228l-141 252q-28 47 -46 61.5t-48 14.5v-328h-209zM756 801h73q125 0 125 104q0 105 -118 105h-80v-209z" />
<glyph unicode="&#xaf;" horiz-adv-x="1024" d="M219 1143v217h584v-217h-584z" />
<glyph unicode="&#xb0;" horiz-adv-x="708" d="M53 1094q0 124 88.5 209.5t212.5 85.5t212.5 -85.5t88.5 -209.5t-88 -209.5t-213 -85.5q-124 0 -212.5 85.5t-88.5 209.5zM238 1094q0 -56 32 -90.5t84 -34.5t84.5 34.5t32.5 90.5t-32.5 90.5t-84.5 34.5t-84 -34.5t-32 -90.5z" />
<glyph unicode="&#xb1;" horiz-adv-x="1175" d="M84 420v235h356v355h262v-355h355v-235h-355v-365h-262v365h-356zM100 -98h940v-238h-940v238z" />
<glyph unicode="&#xb2;" horiz-adv-x="708" d="M23 1280q116 98 292 98q141 0 218 -61.5t77 -161.5q0 -44 -18 -85.5t-55.5 -81.5t-70 -68t-85.5 -68q36 4 102 4h154v-180h-592v123q16 13 52.5 40.5t53 40t46.5 37t45 38t37 35t33 36.5t23 33.5t16.5 35t4.5 33.5q0 34 -20 51t-53 17q-77 0 -150 -66z" />
<glyph unicode="&#xb3;" horiz-adv-x="669" d="M39 686l43 174q58 -24 133 -24q54 0 88.5 13.5t34.5 39.5q0 60 -176 63v135q77 3 118.5 23t41.5 49q0 20 -17.5 31.5t-48.5 11.5q-63 0 -129 -37l-82 148q43 26 114.5 45.5t151.5 19.5q118 0 187 -44t69 -120q0 -64 -44.5 -102t-104.5 -53v-2q30 -4 58 -14.5t56 -29 t45 -50t17 -72.5q0 -106 -97.5 -166.5t-273.5 -60.5q-124 0 -184 22z" />
<glyph unicode="&#xb4;" horiz-adv-x="1024" d="M295 1108l164 283h393l-291 -283h-266z" />
<glyph unicode="&#xb5;" horiz-adv-x="1169" d="M117 -430v1434h311v-639q0 -67 25.5 -99.5t87.5 -32.5q96 0 186 107v664h311v-693q0 -174 29 -311h-305q-7 18 -14 59t-9 70q-113 -128 -239 -143q-47 -3 -80 4h-8q8 -36 8 -195v-225h-303z" />
<glyph unicode="&#xb6;" horiz-adv-x="1368" d="M59 930q0 192 123 313t305 121h832v-242h-150v-1484h-270v1484h-141v-1484h-271v862q-181 0 -304.5 119.5t-123.5 310.5z" />
<glyph unicode="&#xb7;" horiz-adv-x="552" d="M78 594q0 82 57.5 137t140.5 55q84 0 141.5 -55.5t57.5 -136.5q0 -82 -58 -137.5t-141 -55.5t-140.5 55.5t-57.5 137.5z" />
<glyph unicode="&#xb8;" horiz-adv-x="1009" d="M291 -444l39 133q46 -23 104 -23q44 0 70 17.5t26 50.5q0 45 -42.5 61.5t-102.5 11.5l74 201h174l-43 -114q66 -14 106.5 -60t40.5 -115q0 -87 -73.5 -141.5t-192.5 -54.5q-112 0 -180 33z" />
<glyph unicode="&#xb9;" horiz-adv-x="604" d="M20 1311l261 53h176v-688h-238v487l-149 -35z" />
<glyph unicode="&#xba;" horiz-adv-x="851" d="M47 1010q0 75 23.5 142.5t69 120.5t119 84.5t165.5 31.5q121 0 209.5 -52.5t130 -135t41.5 -183.5q0 -75 -24.5 -143t-70 -121.5t-119.5 -85t-165 -31.5q-92 0 -166 30.5t-119.5 83t-69.5 119t-24 140.5zM303 1018q0 -205 125 -205q67 0 93 49t26 148q0 207 -127 207 q-65 0 -91 -50t-26 -149z" />
<glyph unicode="&#xbb;" horiz-adv-x="1144" d="M49 106l236 398l-236 395h316l237 -395l-237 -398h-316zM532 106l236 398l-236 395h318l237 -395l-237 -398h-318z" />
<glyph unicode="&#xbc;" horiz-adv-x="1591" d="M20 1311l261 53h176v-688h-238v487l-149 -35zM215 0l832 1364h245l-831 -1364h-246zM858 121v141l356 428h226v-399h106v-170h-106v-121h-238v121h-344zM1073 287q36 4 88 4h49v160h-2z" />
<glyph unicode="&#xbd;" horiz-adv-x="1617" d="M20 1311l261 53h176v-688h-238v487l-149 -35zM215 0l832 1364h245l-831 -1364h-246zM932 604q118 98 293 98q141 0 218 -61t77 -160q0 -45 -18 -86.5t-56 -82t-70.5 -68t-85.5 -68.5q36 4 105 4h151v-180h-592v123q161 123 201 159q111 99 111 173q0 32 -20.5 48.5 t-51.5 16.5q-75 0 -152 -63z" />
<glyph unicode="&#xbe;" horiz-adv-x="1656" d="M39 686l43 174q58 -24 133 -24q54 0 88.5 13.5t34.5 39.5q0 60 -176 63v135q77 3 118.5 23t41.5 49q0 20 -17.5 31.5t-48.5 11.5q-63 0 -129 -37l-82 148q43 26 114.5 45.5t151.5 19.5q118 0 187 -44t69 -120q0 -64 -44.5 -102t-104.5 -53v-2q30 -4 58 -14.5t56 -29 t45 -50t17 -72.5q0 -106 -97.5 -166.5t-273.5 -60.5q-124 0 -184 22zM281 0l831 1364h248l-832 -1364h-247zM924 121v141l358 428h223v-399h107v-170h-107v-121h-235v121h-346zM1141 287q36 4 86 4h51v160h-2z" />
<glyph unicode="&#xbf;" horiz-adv-x="847" d="M53 -29q0 107 47 179.5t125 128.5q17 12 49.5 33.5t47 32.5t33 29t25.5 38.5t7 46.5v71h266v-102q0 -92 -33 -145.5t-104 -100.5q-67 -44 -96 -83t-29 -99q0 -129 160 -129q14 0 27.5 1t26 3.5l22.5 4.5t22 6t18.5 6t18 7.5t15.5 7t15 7l13 6.5l107 -225 q-140 -78 -347 -78q-214 0 -325 99t-111 255zM328 842q0 77 54 131.5t136 54.5q83 0 138 -54.5t55 -131.5q0 -75 -55 -129t-138 -54q-82 0 -136 54t-54 129z" />
<glyph unicode="&#xc0;" horiz-adv-x="1427" d="M27 0l520 1364h317l537 -1364h-361l-79 229h-521l-80 -229h-333zM297 1747h393l164 -283h-266zM528 492h340l-100 280q-14 40 -27 84t-20 69.5t-14 54.5t-7 30h-4q-2 -7 -11.5 -44.5t-25 -90.5t-32.5 -103z" />
<glyph unicode="&#xc1;" horiz-adv-x="1427" d="M27 0l520 1364h317l537 -1364h-361l-79 229h-521l-80 -229h-333zM528 492h340l-100 280q-14 40 -27 84t-20 69.5t-14 54.5t-7 30h-4q-2 -7 -11.5 -44.5t-25 -90.5t-32.5 -103zM541 1464l164 283h393l-291 -283h-266z" />
<glyph unicode="&#xc2;" horiz-adv-x="1427" d="M27 0l520 1364h317l537 -1364h-361l-79 229h-521l-80 -229h-333zM315 1466l265 332h237l260 -332h-260l-121 123l-121 -123h-260zM528 492h340l-100 280q-14 40 -27 84t-20 69.5t-14 54.5t-7 30h-4q-2 -7 -11.5 -44.5t-25 -90.5t-32.5 -103z" />
<glyph unicode="&#xc3;" horiz-adv-x="1427" d="M27 0l520 1364h317l537 -1364h-361l-79 229h-521l-80 -229h-333zM322 1604q34 65 98.5 115t144.5 50q56 0 100 -17.5t79.5 -34.5t70.5 -17q62 0 117 63l139 -121q-37 -65 -102 -115t-146 -50q-55 0 -99.5 17.5t-80 34.5t-70.5 17q-51 0 -112 -61zM528 492h340l-100 280 q-14 40 -27 84t-20 69.5t-14 54.5t-7 30h-4q-2 -7 -11.5 -44.5t-25 -90.5t-32.5 -103z" />
<glyph unicode="&#xc4;" horiz-adv-x="1427" d="M27 0l520 1364h317l537 -1364h-361l-79 229h-521l-80 -229h-333zM309 1628q0 64 46.5 111t117.5 47t118.5 -47t47.5 -111q0 -67 -47.5 -113.5t-118.5 -46.5t-117.5 46.5t-46.5 113.5zM528 492h340l-100 280q-14 40 -27 84t-20 69.5t-14 54.5t-7 30h-4q-2 -7 -11.5 -44.5 t-25 -90.5t-32.5 -103zM754 1628q0 64 47.5 111t118.5 47q70 0 116.5 -46.5t46.5 -111.5q0 -67 -46 -113.5t-117 -46.5t-118.5 46.5t-47.5 113.5z" />
<glyph unicode="&#xc5;" horiz-adv-x="1427" d="M27 0l520 1364h317l537 -1364h-361l-79 229h-521l-80 -229h-333zM463 1671q0 96 69.5 160.5t163.5 64.5q95 0 164.5 -64.5t69.5 -160.5q0 -95 -70 -159t-164 -64t-163.5 64t-69.5 159zM528 492h340l-100 280q-14 40 -27 84t-20 69.5t-14 54.5t-7 30h-4q-2 -7 -11.5 -44.5 t-25 -90.5t-32.5 -103zM604 1671q0 -40 25.5 -70t66.5 -30t66.5 30t25.5 70q0 43 -25 72t-67 29t-67 -29t-25 -72z" />
<glyph unicode="&#xc6;" horiz-adv-x="1787" d="M-53 0l772 1364h940v-270h-490v-265h433v-254h-433v-305h504v-270h-829v260h-402l-139 -260h-356zM578 516h266v496z" />
<glyph unicode="&#xc7;" horiz-adv-x="1267" d="M82 684q0 112 28.5 215.5t87.5 193t143 155.5t201.5 103.5t256.5 37.5q250 0 418 -111l-146 -240q-128 78 -278 78q-170 0 -265.5 -119t-95.5 -305q0 -194 95 -318t272 -124q69 0 129 17t94 35.5t76 49.5l135 -231q-62 -54 -182 -99.5t-256 -46.5l-31 -81 q66 -14 106.5 -60t40.5 -115q0 -87 -73.5 -141.5t-192.5 -54.5q-112 0 -180 33l39 133q46 -23 104 -23q44 0 70.5 17.5t26.5 50.5q0 45 -43 61.5t-103 11.5l68 185q-178 33 -303 136.5t-183.5 245.5t-58.5 310z" />
<glyph unicode="&#xc8;" horiz-adv-x="1103" d="M160 0v1364h815v-270h-488v-265h431v-254h-431v-305h502v-270h-829zM166 1747h393l164 -283h-266z" />
<glyph unicode="&#xc9;" horiz-adv-x="1103" d="M160 0v1364h815v-270h-488v-265h431v-254h-431v-305h502v-270h-829zM408 1464l163 283h394l-291 -283h-266z" />
<glyph unicode="&#xca;" horiz-adv-x="1103" d="M160 0v1364h815v-270h-488v-265h431v-254h-431v-305h502v-270h-829zM182 1466l264 332h238l260 -332h-260l-121 123l-121 -123h-260z" />
<glyph unicode="&#xcb;" horiz-adv-x="1103" d="M160 0v1364h815v-270h-488v-265h431v-254h-431v-305h502v-270h-829zM176 1628q0 64 47 111t117 47q71 0 118.5 -47t47.5 -111q0 -67 -47.5 -113.5t-118.5 -46.5t-117.5 46.5t-46.5 113.5zM621 1628q0 64 47 111t118 47q70 0 117 -47t47 -111q0 -67 -46.5 -113.5 t-117.5 -46.5t-118 46.5t-47 113.5z" />
<glyph unicode="&#xcc;" horiz-adv-x="692" d="M-59 1747h393l164 -283h-267zM172 0v1364h334v-1364h-334z" />
<glyph unicode="&#xcd;" horiz-adv-x="692" d="M172 0v1364h334v-1364h-334zM184 1464l164 283h393l-290 -283h-267z" />
<glyph unicode="&#xce;" horiz-adv-x="692" d="M-41 1466l264 332h238l260 -332h-260l-121 123l-121 -123h-260zM172 0v1364h334v-1364h-334z" />
<glyph unicode="&#xcf;" horiz-adv-x="692" d="M-47 1628q0 64 46.5 111t117.5 47t118.5 -47t47.5 -111q0 -67 -47.5 -113.5t-118.5 -46.5t-117.5 46.5t-46.5 113.5zM172 0v1364h334v-1364h-334zM397 1628q0 64 47.5 111t118.5 47t117.5 -47t46.5 -111q0 -67 -46.5 -113.5t-117.5 -46.5t-118.5 46.5t-47.5 113.5z" />
<glyph unicode="&#xd0;" horiz-adv-x="1464" d="M33 575v230h127v559h444q197 0 347 -48t244 -137t141.5 -209.5t47.5 -269.5q0 -119 -30 -223.5t-93 -192.5t-155 -151t-223.5 -98t-290.5 -35h-432v575h-127zM492 262h126q418 0 418 430q0 212 -104 311t-324 99h-116v-297h210v-230h-210v-313z" />
<glyph unicode="&#xd1;" horiz-adv-x="1540" d="M160 0v1364h334l442 -635q30 -44 59 -89t45 -73t29.5 -51.5t15.5 -26.5h5q-9 63 -9 224v651h299v-1364h-301l-485 688q-37 52 -68 100t-49 78t-22 35h-4q8 -56 8 -190v-711h-299zM393 1604q34 65 99 115t145 50q56 0 100 -17.5t79.5 -34.5t70.5 -17q62 0 117 63l139 -121 q-37 -65 -102 -115t-146 -50q-55 0 -99.5 17.5t-80 34.5t-70.5 17q-52 0 -113 -61z" />
<glyph unicode="&#xd2;" d="M82 680q0 112 29 215.5t88.5 193.5t143.5 156.5t201 105t253 38.5q138 0 254.5 -37.5t200 -103.5t142 -154.5t87 -190.5t28.5 -213q0 -112 -27.5 -216t-85.5 -195t-140 -158.5t-198 -106.5t-253 -39q-170 0 -309.5 58.5t-228.5 157t-137 224.5t-48 265zM397 1747h394 l163 -283h-266zM432 690q0 -92 22 -172t65 -143t114.5 -99t163.5 -36q94 0 166 35t114 97t63 139.5t21 168.5q0 92 -20 170t-61.5 140.5t-111.5 98t-163 35.5q-95 0 -167.5 -34.5t-117 -94.5t-66.5 -137t-22 -168z" />
<glyph unicode="&#xd3;" d="M82 680q0 112 29 215.5t88.5 193.5t143.5 156.5t201 105t253 38.5q138 0 254.5 -37.5t200 -103.5t142 -154.5t87 -190.5t28.5 -213q0 -112 -27.5 -216t-85.5 -195t-140 -158.5t-198 -106.5t-253 -39q-170 0 -309.5 58.5t-228.5 157t-137 224.5t-48 265zM432 690 q0 -92 22 -172t65 -143t114.5 -99t163.5 -36q94 0 166 35t114 97t63 139.5t21 168.5q0 92 -20 170t-61.5 140.5t-111.5 98t-163 35.5q-95 0 -167.5 -34.5t-117 -94.5t-66.5 -137t-22 -168zM639 1464l164 283h393l-291 -283h-266z" />
<glyph unicode="&#xd4;" d="M82 680q0 112 29 215.5t88.5 193.5t143.5 156.5t201 105t253 38.5q138 0 254.5 -37.5t200 -103.5t142 -154.5t87 -190.5t28.5 -213q0 -112 -27.5 -216t-85.5 -195t-140 -158.5t-198 -106.5t-253 -39q-170 0 -309.5 58.5t-228.5 157t-137 224.5t-48 265zM414 1466l264 332 h237l261 -332h-261l-120 123l-121 -123h-260zM432 690q0 -92 22 -172t65 -143t114.5 -99t163.5 -36q94 0 166 35t114 97t63 139.5t21 168.5q0 92 -20 170t-61.5 140.5t-111.5 98t-163 35.5q-95 0 -167.5 -34.5t-117 -94.5t-66.5 -137t-22 -168z" />
<glyph unicode="&#xd5;" d="M82 680q0 112 29 215.5t88.5 193.5t143.5 156.5t201 105t253 38.5q138 0 254.5 -37.5t200 -103.5t142 -154.5t87 -190.5t28.5 -213q0 -112 -27.5 -216t-85.5 -195t-140 -158.5t-198 -106.5t-253 -39q-170 0 -309.5 58.5t-228.5 157t-137 224.5t-48 265zM420 1604 q34 65 99 115t145 50q56 0 100 -17.5t79 -34.5t70 -17q62 0 117 63l139 -121q-37 -66 -101.5 -115.5t-145.5 -49.5q-55 0 -99.5 17.5t-80 34.5t-70.5 17q-52 0 -113 -61zM432 690q0 -92 22 -172t65 -143t114.5 -99t163.5 -36q94 0 166 35t114 97t63 139.5t21 168.5 q0 92 -20 170t-61.5 140.5t-111.5 98t-163 35.5q-95 0 -167.5 -34.5t-117 -94.5t-66.5 -137t-22 -168z" />
<glyph unicode="&#xd6;" d="M82 680q0 112 29 215.5t88.5 193.5t143.5 156.5t201 105t253 38.5q138 0 254.5 -37.5t200 -103.5t142 -154.5t87 -190.5t28.5 -213q0 -112 -27.5 -216t-85.5 -195t-140 -158.5t-198 -106.5t-253 -39q-170 0 -309.5 58.5t-228.5 157t-137 224.5t-48 265zM408 1628 q0 65 46.5 111.5t116.5 46.5q71 0 118.5 -47t47.5 -111q0 -67 -47.5 -113.5t-118.5 -46.5t-117 46.5t-46 113.5zM432 690q0 -92 22 -172t65 -143t114.5 -99t163.5 -36q94 0 166 35t114 97t63 139.5t21 168.5q0 92 -20 170t-61.5 140.5t-111.5 98t-163 35.5 q-95 0 -167.5 -34.5t-117 -94.5t-66.5 -137t-22 -168zM852 1628q0 64 47.5 111t118.5 47q70 0 117 -47t47 -111q0 -67 -46.5 -113.5t-117.5 -46.5t-118.5 46.5t-47.5 113.5z" />
<glyph unicode="&#xd7;" horiz-adv-x="1046" d="M104 784l179 181l243 -242l238 238l178 -179l-237 -237l247 -248l-180 -180l-248 248l-239 -240l-179 178l240 240z" />
<glyph unicode="&#xd8;" d="M82 680q0 112 29 215.5t88.5 193.5t143.5 156.5t201 105t253 38.5q179 0 319 -64l133 184l197 -141l-129 -178q94 -97 143 -227t49 -273q0 -112 -27.5 -216t-85.5 -195t-140 -158.5t-198 -106.5t-253 -39q-176 0 -322 62l-141 -195l-199 140l140 192q-98 98 -149.5 229 t-51.5 277zM432 690q0 -152 53 -258l473 660q-69 32 -153 32q-95 0 -167.5 -34.5t-117 -94.5t-66.5 -137t-22 -168zM639 272q63 -32 158 -32q94 0 166 35t114 97t63 139.5t21 168.5q0 143 -49 250z" />
<glyph unicode="&#xd9;" horiz-adv-x="1480" d="M154 535v829h331v-805q0 -165 63 -240t212 -75q262 0 262 301v819h303v-797q0 -290 -144.5 -441t-426.5 -151q-300 0 -450 141t-150 419zM340 1747h393l164 -283h-266z" />
<glyph unicode="&#xda;" horiz-adv-x="1480" d="M154 535v829h331v-805q0 -165 63 -240t212 -75q262 0 262 301v819h303v-797q0 -290 -144.5 -441t-426.5 -151q-300 0 -450 141t-150 419zM584 1464l164 283h393l-291 -283h-266z" />
<glyph unicode="&#xdb;" horiz-adv-x="1480" d="M154 535v829h331v-805q0 -165 63 -240t212 -75q262 0 262 301v819h303v-797q0 -290 -144.5 -441t-426.5 -151q-300 0 -450 141t-150 419zM358 1466l265 332h237l260 -332h-260l-121 123l-121 -123h-260z" />
<glyph unicode="&#xdc;" horiz-adv-x="1480" d="M154 535v829h331v-805q0 -165 63 -240t212 -75q262 0 262 301v819h303v-797q0 -290 -144.5 -441t-426.5 -151q-300 0 -450 141t-150 419zM352 1628q0 64 47 111t117 47q71 0 118.5 -47t47.5 -111q0 -67 -47.5 -113.5t-118.5 -46.5t-117.5 46.5t-46.5 113.5zM797 1628 q0 64 47.5 111t118.5 47q70 0 116.5 -46.5t46.5 -111.5q0 -67 -46 -113.5t-117 -46.5t-118.5 46.5t-47.5 113.5z" />
<glyph unicode="&#xdd;" horiz-adv-x="1253" d="M18 1364h367l264 -543h2l262 543h322l-434 -850v-514h-332v514zM479 1464l164 283h393l-291 -283h-266z" />
<glyph unicode="&#xde;" horiz-adv-x="1269" d="M158 0v1364h329v-217h152q155 0 273.5 -46.5t190 -148t71.5 -247.5q0 -224 -152.5 -341.5t-417.5 -117.5h-117v-246h-329zM487 494h119q123 0 180.5 50t57.5 156q0 100 -56 148.5t-174 48.5h-127v-403z" />
<glyph unicode="&#xdf;" horiz-adv-x="1208" d="M123 0v1018q0 101 25.5 182.5t70 136.5t107 92t133 53.5t151.5 16.5q108 0 195 -30.5t141.5 -83t83.5 -120.5t29 -147q0 -76 -27 -126t-74 -95q-19 -22 -57 -54t-56 -56.5t-18 -55.5q0 -9 2 -17t5 -15t9.5 -15t11.5 -13.5t15.5 -13.5t17 -12.5t21 -13.5t22 -13.5 t24.5 -14.5t26 -15q42 -27 68.5 -48t57 -57t45.5 -85t15 -111q0 -144 -97 -228t-269 -84q-180 0 -297 64l80 219q77 -55 172 -55q123 0 123 86q0 19 -9 35.5t-29 33t-38.5 28.5t-51.5 32t-53 33q-71 50 -112 107t-41 138q0 32 6.5 61t14 48t24 42t25.5 33.5t30 31.5t27 28 q39 39 58.5 74.5t19.5 91.5q0 156 -146 156q-87 0 -128.5 -61.5t-41.5 -186.5v-1014h-311z" />
<glyph unicode="&#xe0;" horiz-adv-x="1048" d="M61 262q0 75 29.5 136t80 102t119.5 68.5t145 40t159 12.5h33v47q0 62 -33.5 89t-118.5 27q-139 0 -252 -90l-131 187q68 61 175 104t247 43q221 0 322.5 -90t101.5 -293v-328q0 -176 29 -317h-305q-15 48 -19 104q-43 -54 -113.5 -91.5t-160.5 -37.5q-134 0 -221 76.5 t-87 210.5zM123 1391h393l164 -283h-266zM356 289q0 -45 31.5 -69.5t81.5 -24.5q91 0 158 71v168h-33q-111 0 -174.5 -35.5t-63.5 -109.5z" />
<glyph unicode="&#xe1;" horiz-adv-x="1048" d="M61 262q0 75 29.5 136t80 102t119.5 68.5t145 40t159 12.5h33v47q0 62 -33.5 89t-118.5 27q-139 0 -252 -90l-131 187q68 61 175 104t247 43q221 0 322.5 -90t101.5 -293v-328q0 -176 29 -317h-305q-15 48 -19 104q-43 -54 -113.5 -91.5t-160.5 -37.5q-134 0 -221 76.5 t-87 210.5zM356 289q0 -45 31.5 -69.5t81.5 -24.5q91 0 158 71v168h-33q-111 0 -174.5 -35.5t-63.5 -109.5zM365 1108l163 283h394l-291 -283h-266z" />
<glyph unicode="&#xe2;" horiz-adv-x="1048" d="M61 262q0 75 29.5 136t80 102t119.5 68.5t145 40t159 12.5h33v47q0 62 -33.5 89t-118.5 27q-139 0 -252 -90l-131 187q68 61 175 104t247 43q221 0 322.5 -90t101.5 -293v-328q0 -176 29 -317h-305q-15 48 -19 104q-43 -54 -113.5 -91.5t-160.5 -37.5q-134 0 -221 76.5 t-87 210.5zM139 1110l264 332h238l260 -332h-260l-121 123l-121 -123h-260zM356 289q0 -45 31.5 -69.5t81.5 -24.5q91 0 158 71v168h-33q-111 0 -174.5 -35.5t-63.5 -109.5z" />
<glyph unicode="&#xe3;" horiz-adv-x="1048" d="M61 262q0 75 29.5 136t80 102t119.5 68.5t145 40t159 12.5h33v47q0 62 -33.5 89t-118.5 27q-139 0 -252 -90l-131 187q68 61 175 104t247 43q221 0 322.5 -90t101.5 -293v-328q0 -176 29 -317h-305q-15 48 -19 104q-43 -54 -113.5 -91.5t-160.5 -37.5q-134 0 -221 76.5 t-87 210.5zM145 1247q35 65 99.5 115.5t144.5 50.5q56 0 100 -17.5t79.5 -35t70.5 -17.5q61 0 117 64l139 -121q-37 -66 -102 -116t-146 -50q-55 0 -99.5 17.5t-80 35t-70.5 17.5q-50 0 -112 -62zM356 289q0 -45 31.5 -69.5t81.5 -24.5q91 0 158 71v168h-33 q-111 0 -174.5 -35.5t-63.5 -109.5z" />
<glyph unicode="&#xe4;" horiz-adv-x="1048" d="M61 262q0 75 29.5 136t80 102t119.5 68.5t145 40t159 12.5h33v47q0 62 -33.5 89t-118.5 27q-139 0 -252 -90l-131 187q68 61 175 104t247 43q221 0 322.5 -90t101.5 -293v-328q0 -176 29 -317h-305q-15 48 -19 104q-43 -54 -113.5 -91.5t-160.5 -37.5q-134 0 -221 76.5 t-87 210.5zM133 1272q0 64 46.5 111t117.5 47t118.5 -47t47.5 -111q0 -67 -47.5 -113.5t-118.5 -46.5t-117.5 46.5t-46.5 113.5zM356 289q0 -45 31.5 -69.5t81.5 -24.5q91 0 158 71v168h-33q-111 0 -174.5 -35.5t-63.5 -109.5zM578 1272q0 64 47 111t118 47t117.5 -47 t46.5 -111q0 -67 -46.5 -113.5t-117.5 -46.5t-118 46.5t-47 113.5z" />
<glyph unicode="&#xe5;" horiz-adv-x="1048" d="M61 262q0 75 29.5 136t80 102t119.5 68.5t145 40t159 12.5h33v47q0 62 -33.5 89t-118.5 27q-139 0 -252 -90l-131 187q68 61 175 104t247 43q221 0 322.5 -90t101.5 -293v-328q0 -176 29 -317h-305q-15 48 -19 104q-43 -54 -113.5 -91.5t-160.5 -37.5q-134 0 -221 76.5 t-87 210.5zM287 1325q0 96 69.5 160.5t163.5 64.5q95 0 164.5 -64.5t69.5 -160.5q0 -95 -70 -159t-164 -64t-163.5 64t-69.5 159zM356 289q0 -45 31.5 -69.5t81.5 -24.5q91 0 158 71v168h-33q-111 0 -174.5 -35.5t-63.5 -109.5zM428 1325q0 -40 25.5 -70t66.5 -30t66.5 30 t25.5 70q0 43 -25 71.5t-67 28.5t-67 -28.5t-25 -71.5z" />
<glyph unicode="&#xe6;" horiz-adv-x="1644" d="M61 262q0 75 29.5 136t80 102t119.5 68.5t145 40t159 12.5h39v47q0 59 -35.5 87.5t-122.5 28.5q-129 0 -252 -90l-131 187q63 57 169.5 102t252.5 45q220 0 311 -104q132 104 301 104q220 0 334.5 -130.5t114.5 -375.5q0 -67 -4 -104h-621q14 -101 73 -158t165 -57 q62 0 118 12.5t76.5 21.5t61.5 29l96 -194q-39 -22 -62.5 -33t-72.5 -29t-110.5 -26.5t-135.5 -8.5q-265 0 -414 168q-66 -72 -162 -120t-214 -48q-134 0 -221 76.5t-87 210.5zM356 289q0 -45 31.5 -69.5t81.5 -24.5q112 0 186 100q-24 64 -30 139h-31q-111 0 -174.5 -35.5 t-63.5 -109.5zM942 623h332q-2 84 -38.5 135t-113.5 51q-149 0 -180 -186z" />
<glyph unicode="&#xe7;" horiz-adv-x="950" d="M55 500q0 247 151 387.5t396 140.5q192 0 307 -76l-94 -211q-86 54 -201 54q-109 0 -169 -76.5t-60 -208.5q0 -137 60 -217t176 -80q51 0 99.5 12t62 18.5t44.5 22.5l91 -205q-26 -16 -46.5 -26.5t-62 -26.5t-96 -24.5t-119.5 -8.5h-4l-31 -81q66 -14 107 -60t41 -115 q0 -87 -74 -141.5t-193 -54.5q-112 0 -180 33l39 133q46 -23 104 -23q44 0 70.5 17.5t26.5 50.5q0 45 -43 61.5t-103 11.5l70 189q-173 43 -271 176t-98 328z" />
<glyph unicode="&#xe8;" horiz-adv-x="1081" d="M55 506q0 158 68.5 278t184 182t257.5 62q243 0 357 -159t88 -451h-619q11 -100 70 -157.5t166 -57.5q62 0 118 12.5t76.5 21.5t61.5 29l96 -194q-39 -22 -62.5 -33t-72.5 -29t-111 -26.5t-137 -8.5q-255 0 -398 142.5t-143 388.5zM168 1391h393l164 -283h-266zM383 623 h330q-2 84 -38.5 135t-113.5 51q-150 0 -178 -186z" />
<glyph unicode="&#xe9;" horiz-adv-x="1081" d="M55 506q0 158 68.5 278t184 182t257.5 62q243 0 357 -159t88 -451h-619q11 -100 70 -157.5t166 -57.5q62 0 118 12.5t76.5 21.5t61.5 29l96 -194q-39 -22 -62.5 -33t-72.5 -29t-111 -26.5t-137 -8.5q-255 0 -398 142.5t-143 388.5zM383 623h330q-2 84 -38.5 135 t-113.5 51q-150 0 -178 -186zM410 1108l163 283h394l-291 -283h-266z" />
<glyph unicode="&#xea;" horiz-adv-x="1081" d="M55 506q0 158 68.5 278t184 182t257.5 62q243 0 357 -159t88 -451h-619q11 -100 70 -157.5t166 -57.5q62 0 118 12.5t76.5 21.5t61.5 29l96 -194q-39 -22 -62.5 -33t-72.5 -29t-111 -26.5t-137 -8.5q-255 0 -398 142.5t-143 388.5zM184 1110l265 332h237l260 -332h-260 l-121 123l-121 -123h-260zM383 623h330q-2 84 -38.5 135t-113.5 51q-150 0 -178 -186z" />
<glyph unicode="&#xeb;" horiz-adv-x="1081" d="M55 506q0 158 68.5 278t184 182t257.5 62q243 0 357 -159t88 -451h-619q11 -100 70 -157.5t166 -57.5q62 0 118 12.5t76.5 21.5t61.5 29l96 -194q-39 -22 -62.5 -33t-72.5 -29t-111 -26.5t-137 -8.5q-255 0 -398 142.5t-143 388.5zM178 1272q0 64 47 111t117 47 q71 0 118.5 -47t47.5 -111q0 -67 -47.5 -113.5t-118.5 -46.5t-117.5 46.5t-46.5 113.5zM383 623h330q-2 84 -38.5 135t-113.5 51q-150 0 -178 -186zM623 1272q0 64 47 111t118 47q70 0 117 -47t47 -111q0 -67 -46.5 -113.5t-117.5 -46.5t-118 46.5t-47 113.5z" />
<glyph unicode="&#xec;" horiz-adv-x="593" d="M-100 1391h393l164 -283h-267zM139 0v1004h316v-1004h-316z" />
<glyph unicode="&#xed;" horiz-adv-x="593" d="M139 0v1004h316v-1004h-316zM141 1108l164 283h393l-290 -283h-267z" />
<glyph unicode="&#xee;" horiz-adv-x="593" d="M-84 1110l264 332h238l260 -332h-260l-121 123l-121 -123h-260zM139 0v1004h316v-1004h-316z" />
<glyph unicode="&#xef;" horiz-adv-x="593" d="M-90 1272q0 64 47 111t117 47q71 0 118.5 -47t47.5 -111q0 -67 -47.5 -113.5t-118.5 -46.5t-117.5 46.5t-46.5 113.5zM139 0v1004h316v-1004h-316zM354 1272q0 64 47.5 111t118.5 47q70 0 117 -47t47 -111q0 -67 -46.5 -113.5t-117.5 -46.5t-118.5 46.5t-47.5 113.5z" />
<glyph unicode="&#xf0;" horiz-adv-x="1159" d="M57 489q0 120 37.5 218t101 161.5t147 98t177.5 34.5q120 0 191 -55q-50 141 -158 215l-127 -117l-119 119l78 70q-116 29 -238 29l64 237q217 0 391 -63l139 127l117 -119l-96 -88q165 -110 249.5 -298t84.5 -444q0 -292 -134 -465.5t-389 -173.5q-146 0 -261.5 58 t-185 176.5t-69.5 279.5zM387 494q0 -134 48 -210.5t140 -76.5q98 0 145.5 93.5t47.5 305.5q0 57 -2 80q-62 86 -195 86q-92 0 -138 -73.5t-46 -204.5z" />
<glyph unicode="&#xf1;" horiz-adv-x="1159" d="M121 0v1004h305v-123q128 147 315 147q157 0 230 -90t73 -240v-698h-311v635q0 70 -28 102.5t-93 32.5q-54 0 -101 -33t-79 -75v-662h-311zM201 1247q35 66 99 116t144 50q56 0 100 -17.5t79.5 -35t70.5 -17.5q61 0 117 64l139 -121q-37 -66 -102 -116t-146 -50 q-55 0 -99 17.5t-79.5 35t-70.5 17.5q-51 0 -113 -62z" />
<glyph unicode="&#xf2;" horiz-adv-x="1142" d="M55 498q0 81 19 156.5t60.5 144t100.5 119t145 80.5t189 30q127 0 228 -43.5t162.5 -117.5t93.5 -166t32 -193q0 -80 -19.5 -155.5t-61 -144.5t-100.5 -120.5t-145.5 -82t-189.5 -30.5q-102 0 -188 29t-145.5 79t-100.5 117t-60.5 142t-19.5 156zM174 1391h393l164 -283 h-266zM385 508q0 -301 190 -301q99 0 140 74t41 217q0 303 -191 303q-99 0 -139.5 -75.5t-40.5 -217.5z" />
<glyph unicode="&#xf3;" horiz-adv-x="1142" d="M55 498q0 81 19 156.5t60.5 144t100.5 119t145 80.5t189 30q127 0 228 -43.5t162.5 -117.5t93.5 -166t32 -193q0 -80 -19.5 -155.5t-61 -144.5t-100.5 -120.5t-145.5 -82t-189.5 -30.5q-102 0 -188 29t-145.5 79t-100.5 117t-60.5 142t-19.5 156zM385 508 q0 -301 190 -301q99 0 140 74t41 217q0 303 -191 303q-99 0 -139.5 -75.5t-40.5 -217.5zM414 1108l164 283h393l-291 -283h-266z" />
<glyph unicode="&#xf4;" horiz-adv-x="1142" d="M55 498q0 81 19 156.5t60.5 144t100.5 119t145 80.5t189 30q127 0 228 -43.5t162.5 -117.5t93.5 -166t32 -193q0 -80 -19.5 -155.5t-61 -144.5t-100.5 -120.5t-145.5 -82t-189.5 -30.5q-102 0 -188 29t-145.5 79t-100.5 117t-60.5 142t-19.5 156zM188 1110l265 332h237 l260 -332h-260l-121 123l-120 -123h-261zM385 508q0 -301 190 -301q99 0 140 74t41 217q0 303 -191 303q-99 0 -139.5 -75.5t-40.5 -217.5z" />
<glyph unicode="&#xf5;" horiz-adv-x="1142" d="M55 498q0 81 19 156.5t60.5 144t100.5 119t145 80.5t189 30q127 0 228 -43.5t162.5 -117.5t93.5 -166t32 -193q0 -80 -19.5 -155.5t-61 -144.5t-100.5 -120.5t-145.5 -82t-189.5 -30.5q-102 0 -188 29t-145.5 79t-100.5 117t-60.5 142t-19.5 156zM195 1247q35 66 99 116 t144 50q56 0 100 -17.5t79.5 -35t70.5 -17.5q61 0 117 64l139 -121q-37 -66 -102 -116t-146 -50q-55 0 -99.5 17.5t-80 35t-70.5 17.5q-50 0 -112 -62zM385 508q0 -301 190 -301q99 0 140 74t41 217q0 303 -191 303q-99 0 -139.5 -75.5t-40.5 -217.5z" />
<glyph unicode="&#xf6;" horiz-adv-x="1142" d="M55 498q0 81 19 156.5t60.5 144t100.5 119t145 80.5t189 30q127 0 228 -43.5t162.5 -117.5t93.5 -166t32 -193q0 -80 -19.5 -155.5t-61 -144.5t-100.5 -120.5t-145.5 -82t-189.5 -30.5q-102 0 -188 29t-145.5 79t-100.5 117t-60.5 142t-19.5 156zM182 1272q0 64 47 111 t117 47q71 0 118.5 -47t47.5 -111q0 -67 -47.5 -113.5t-118.5 -46.5t-117.5 46.5t-46.5 113.5zM385 508q0 -301 190 -301q99 0 140 74t41 217q0 303 -191 303q-99 0 -139.5 -75.5t-40.5 -217.5zM627 1272q0 64 47.5 111t118.5 47q70 0 116.5 -46.5t46.5 -111.5 q0 -67 -46 -113.5t-117 -46.5t-118.5 46.5t-47.5 113.5z" />
<glyph unicode="&#xf7;" horiz-adv-x="1171" d="M84 387v229h999v-229h-999zM418 139q0 66 48 113t114 47q67 0 113 -47t46 -113t-46 -112.5t-113 -46.5q-66 0 -114 46.5t-48 112.5zM418 862q0 66 48 113t114 47q67 0 113 -47t46 -113t-46 -113t-113 -47q-66 0 -114 47t-48 113z" />
<glyph unicode="&#xf8;" horiz-adv-x="1142" d="M55 498q0 81 19 156.5t60.5 144t100.5 119t145 80.5t189 30q106 0 203 -33l119 176l174 -114l-119 -176q69 -72 104 -169.5t35 -203.5q0 -80 -19.5 -155.5t-61 -144.5t-100.5 -120.5t-145.5 -82t-189.5 -30.5q-124 0 -219 39l-112 -159l-172 112l114 168 q-125 146 -125 363zM375 508q0 -65 8 -109l262 389q-39 17 -80 17q-190 0 -190 -297zM477 227q39 -26 98 -26q191 0 191 297q0 76 -14 131z" />
<glyph unicode="&#xf9;" horiz-adv-x="1159" d="M115 303v701h311v-635q0 -70 28 -103t93 -33q94 0 180 107v664h311v-691q0 -176 29 -313h-307q-17 58 -21 131q-50 -65 -130.5 -110.5t-190.5 -45.5q-158 0 -230.5 89t-72.5 239zM182 1391h393l164 -283h-266z" />
<glyph unicode="&#xfa;" horiz-adv-x="1159" d="M115 303v701h311v-635q0 -70 28 -103t93 -33q94 0 180 107v664h311v-691q0 -176 29 -313h-307q-17 58 -21 131q-50 -65 -130.5 -110.5t-190.5 -45.5q-158 0 -230.5 89t-72.5 239zM422 1108l164 283h393l-291 -283h-266z" />
<glyph unicode="&#xfb;" horiz-adv-x="1159" d="M115 303v701h311v-635q0 -70 28 -103t93 -33q94 0 180 107v664h311v-691q0 -176 29 -313h-307q-17 58 -21 131q-50 -65 -130.5 -110.5t-190.5 -45.5q-158 0 -230.5 89t-72.5 239zM197 1110l264 332h237l260 -332h-260l-120 123l-121 -123h-260z" />
<glyph unicode="&#xfc;" horiz-adv-x="1159" d="M115 303v701h311v-635q0 -70 28 -103t93 -33q94 0 180 107v664h311v-691q0 -176 29 -313h-307q-17 58 -21 131q-50 -65 -130.5 -110.5t-190.5 -45.5q-158 0 -230.5 89t-72.5 239zM190 1272q0 64 47 111t117 47q71 0 118.5 -47t47.5 -111q0 -67 -47.5 -113.5t-118.5 -46.5 t-117.5 46.5t-46.5 113.5zM635 1272q0 64 47.5 111t118.5 47t117.5 -47t46.5 -111q0 -67 -46.5 -113.5t-117.5 -46.5t-118.5 46.5t-47.5 113.5z" />
<glyph unicode="&#xfd;" horiz-adv-x="1089" d="M0 -461l45 246q42 -12 105 -12q97 0 143 38.5t76 118.5l34 97l-374 977h329l207 -619h6l183 619h317l-409 -1102q-37 -101 -76.5 -168t-96 -118t-133.5 -74t-182 -23q-97 0 -174 20zM401 1108l164 283h393l-290 -283h-267z" />
<glyph unicode="&#xfe;" horiz-adv-x="1191" d="M121 -449v1922h311v-566q108 121 268 121q193 0 300.5 -137t107.5 -389q0 -236 -126.5 -381.5t-324.5 -145.5q-143 0 -225 66v-490h-311zM432 272q70 -59 154 -59q92 0 142 75t50 216q0 134 -45.5 206t-132.5 72q-96 0 -168 -90v-420z" />
<glyph unicode="&#xff;" horiz-adv-x="1089" d="M0 -461l45 246q42 -12 105 -12q97 0 143 38.5t76 118.5l34 97l-374 977h329l207 -619h6l183 619h317l-409 -1102q-37 -101 -76.5 -168t-96 -118t-133.5 -74t-182 -23q-97 0 -174 20zM170 1272q0 64 47 111t117 47q71 0 118.5 -47t47.5 -111q0 -67 -47.5 -113.5 t-118.5 -46.5t-117.5 46.5t-46.5 113.5zM614 1272q0 64 47.5 111t118.5 47q70 0 117 -47t47 -111q0 -67 -46.5 -113.5t-117.5 -46.5t-118.5 46.5t-47.5 113.5z" />
<glyph unicode="&#x152;" horiz-adv-x="1908" d="M66 680q0 140 46.5 266.5t133.5 226t224.5 158t307.5 58.5q96 0 209 -25h795v-270h-490v-265h430v-254h-430v-305h504v-270h-790q-109 -25 -220 -25q-170 0 -309.5 58.5t-227.5 157t-135.5 224.5t-47.5 265zM414 690q0 -73 13 -139t42 -123t71 -98.5t103 -65.5t135 -24 q116 0 193 36v809q-67 39 -185 39q-94 0 -166.5 -34.5t-116.5 -94.5t-66.5 -137t-22.5 -168z" />
<glyph unicode="&#x153;" horiz-adv-x="1781" d="M55 498q0 81 19 156.5t60.5 144t100.5 119t145 80.5t189 30q219 0 349 -137q140 137 339 137q243 0 357 -159t88 -451h-621q26 -215 238 -215q62 0 118 12.5t76.5 21.5t61.5 29l96 -194q-43 -23 -64 -33t-71.5 -29t-111.5 -27t-136 -8q-233 0 -373 140 q-137 -140 -346 -140q-102 0 -188 29t-145.5 79t-100.5 117t-60.5 142t-19.5 156zM385 508q0 -301 190 -301q99 0 140 74t41 217q0 303 -191 303q-99 0 -139.5 -75.5t-40.5 -217.5zM1075 623h330q-7 186 -152 186q-150 0 -178 -186z" />
<glyph unicode="&#x178;" horiz-adv-x="1253" d="M18 1364h367l264 -543h2l262 543h322l-434 -850v-514h-332v514zM248 1628q0 64 47 111t117 47q71 0 118.5 -47t47.5 -111q0 -67 -47.5 -113.5t-118.5 -46.5t-117.5 46.5t-46.5 113.5zM692 1628q0 64 47.5 111t118.5 47q70 0 117 -47t47 -111q0 -67 -46.5 -113.5 t-117.5 -46.5t-118.5 46.5t-47.5 113.5z" />
<glyph unicode="&#x2c6;" horiz-adv-x="1024" d="M131 1110l264 332h238l260 -332h-260l-121 123l-121 -123h-260z" />
<glyph unicode="&#x2dc;" horiz-adv-x="1024" d="M137 1247q35 65 99.5 115.5t144.5 50.5q56 0 100 -17.5t79.5 -35t70.5 -17.5q61 0 117 64l139 -121q-37 -66 -102 -116t-146 -50q-55 0 -99.5 17.5t-80 35t-70.5 17.5q-51 0 -113 -62z" />
<glyph unicode="&#x2000;" horiz-adv-x="948" />
<glyph unicode="&#x2001;" horiz-adv-x="1896" />
<glyph unicode="&#x2002;" horiz-adv-x="948" />
<glyph unicode="&#x2003;" horiz-adv-x="1896" />
<glyph unicode="&#x2004;" horiz-adv-x="632" />
<glyph unicode="&#x2005;" horiz-adv-x="474" />
<glyph unicode="&#x2006;" horiz-adv-x="316" />
<glyph unicode="&#x2007;" horiz-adv-x="316" />
<glyph unicode="&#x2008;" horiz-adv-x="237" />
<glyph unicode="&#x2009;" horiz-adv-x="379" />
<glyph unicode="&#x200a;" horiz-adv-x="105" />
<glyph unicode="&#x2010;" horiz-adv-x="688" d="M102 449v249h486v-249h-486z" />
<glyph unicode="&#x2011;" horiz-adv-x="688" d="M102 449v249h486v-249h-486z" />
<glyph unicode="&#x2012;" horiz-adv-x="688" d="M102 449v249h486v-249h-486z" />
<glyph unicode="&#x2013;" horiz-adv-x="1142" d="M94 426v238h955v-238h-955z" />
<glyph unicode="&#x2014;" horiz-adv-x="1806" d="M94 426v238h1618v-238h-1618z" />
<glyph unicode="&#x2018;" horiz-adv-x="477" d="M51 985q0 95 46 199t106 180h188q-30 -42 -53 -96t-23 -97q0 -31 12 -55.5t28.5 -42t33.5 -36t29 -46t12 -63.5q0 -71 -50.5 -116.5t-123.5 -45.5q-85 0 -145 60t-60 159z" />
<glyph unicode="&#x2019;" horiz-adv-x="477" d="M47 1227q0 71 50 116.5t124 45.5q85 0 144 -60t59 -160q0 -95 -46 -198.5t-106 -179.5h-186q76 113 76 194q0 30 -12 54.5t-28.5 42t-33.5 36t-29 46t-12 63.5z" />
<glyph unicode="&#x201a;" horiz-adv-x="550" d="M84 176q0 71 50.5 116.5t123.5 45.5q85 0 145 -60t60 -159q0 -95 -46 -199t-106 -180h-188q30 43 53 96t23 96q0 31 -12 55.5t-28.5 42.5t-33.5 36.5t-29 46t-12 63.5z" />
<glyph unicode="&#x201c;" horiz-adv-x="937" d="M47 985q0 95 46 199t106 180h186q-76 -113 -76 -193q0 -37 18.5 -67.5t40 -48t40 -51t18.5 -76.5q0 -71 -50.5 -116.5t-125.5 -45.5q-85 0 -144 60t-59 159zM514 985q0 95 46 199t106 180h186q-76 -113 -76 -193q0 -31 12 -55.5t29 -42t33.5 -36t28.5 -46t12 -63.5 q0 -71 -50 -116.5t-124 -45.5q-85 0 -144 60t-59 159z" />
<glyph unicode="&#x201d;" horiz-adv-x="937" d="M47 1227q0 71 50 116.5t124 45.5q85 0 144 -60t59 -160q0 -95 -46 -198.5t-106 -179.5h-186q76 113 76 194q0 30 -12 54.5t-28.5 42t-33.5 36t-29 46t-12 63.5zM512 1227q0 71 50.5 116.5t125.5 45.5q85 0 144 -60t59 -160q0 -95 -46 -198.5t-106 -179.5h-186 q76 113 76 194q0 37 -18.5 66.5t-40 47.5t-40 51.5t-18.5 76.5z" />
<glyph unicode="&#x201e;" horiz-adv-x="944" d="M47 176q0 71 50 116.5t124 45.5q85 0 144 -60t59 -159q0 -95 -46 -199t-106 -180h-186q76 113 76 192q0 31 -12 55.5t-28.5 42.5t-33.5 36.5t-29 46t-12 63.5zM512 176q0 71 50.5 116.5t125.5 45.5q85 0 144 -60t59 -159q0 -95 -46 -199t-106 -180h-186q76 113 76 192 q0 38 -18.5 68t-40 48t-40 51.5t-18.5 76.5z" />
<glyph unicode="&#x2022;" horiz-adv-x="948" d="M78 588q0 164 116 280.5t279 116.5q165 0 281 -116t116 -281q0 -163 -116 -278t-281 -115q-163 0 -279 115t-116 278z" />
<glyph unicode="&#x2026;" horiz-adv-x="1646" d="M113 172q0 80 57.5 135t140.5 55t141 -55.5t58 -134.5q0 -81 -57.5 -136.5t-141.5 -55.5q-83 0 -140.5 55t-57.5 137zM625 172q0 80 57.5 135t140.5 55t141 -55.5t58 -134.5q0 -81 -57.5 -136.5t-141.5 -55.5q-83 0 -140.5 55t-57.5 137zM1137 172q0 80 57.5 135 t140.5 55q82 0 140.5 -55.5t58.5 -134.5q0 -81 -58.5 -136.5t-140.5 -55.5q-83 0 -140.5 55t-57.5 137z" />
<glyph unicode="&#x202f;" horiz-adv-x="379" />
<glyph unicode="&#x2039;" horiz-adv-x="671" d="M57 502l238 397h328l-236 -397l236 -396h-328z" />
<glyph unicode="&#x203a;" horiz-adv-x="671" d="M49 106l236 398l-236 395h326l239 -395l-239 -398h-326z" />
<glyph unicode="&#x205f;" horiz-adv-x="474" />
<glyph unicode="&#x20ac;" horiz-adv-x="1204" d="M66 418v211h114q-2 18 -2 55v43h-112v213h143q56 208 206.5 328.5t387.5 120.5q133 0 219 -23.5t156 -67.5l-131 -241q-31 18 -56 29.5t-73.5 21.5t-106.5 10q-185 0 -258 -178h309v-213h-348v-98h348v-211h-305q70 -170 252 -170q60 0 112.5 14t80 29t63.5 39l123 -232 q-44 -33 -85 -55.5t-125 -45t-181 -22.5q-104 0 -195.5 25.5t-169.5 78t-135.5 138.5t-87.5 201h-143z" />
<glyph unicode="&#x2122;" horiz-adv-x="1529" d="M61 1210v154h547v-154h-178v-456h-188v456h-181zM645 754l86 610h187l98 -281q9 -25 17.5 -54t13 -47t4.5 -21h4q0 1 3.5 13.5t8 28t12 38t15.5 42.5l96 281h190l84 -610h-194l-25 241q-8 63 -8 99h-4q0 -31 -29 -117l-76 -223h-165l-72 223q-7 23 -15 52.5t-12.5 46 t-5.5 18.5h-4q0 -28 -8 -101l-29 -239h-172z" />
<glyph unicode="&#x25fc;" horiz-adv-x="1003" d="M0 0v1004h1004v-1004h-1004z" />
</font>
</defs>
</svg>
